<svg width="20" height="23" viewBox="0 0 20 23" fill="none" xmlns="http://www.w3.org/2000/svg">
<path d="M19.7944 18.4721C19.7944 15.7711 18.1546 13.455 15.8163 12.4601C15.8274 12.4822 15.8401 12.5027 15.8507 12.5256C15.9899 12.8238 16.0802 13.1341 16.1209 13.436C16.222 13.4642 16.3216 13.5028 16.4179 13.5543C17.1344 13.9377 17.4043 14.8287 17.0209 15.5453C16.6375 16.2616 15.7465 16.5314 15.0299 16.1483C14.3134 15.7653 14.0438 14.8734 14.427 14.1573C14.6418 13.7557 15.0162 13.4947 15.4304 13.4098C15.3414 12.9569 15.1101 12.4615 14.7425 12.1089C14.4559 12.0424 14.1623 11.994 13.8626 11.9668C13.8368 13.1579 12.0713 14.1192 9.89736 14.1192C7.7229 14.1192 5.9581 13.1579 5.93209 11.9668C5.72169 11.986 5.51403 12.0154 5.30996 12.054C4.85992 12.4131 4.54363 12.9271 4.45692 13.3448C4.61771 13.4353 4.74378 13.584 4.81426 13.7667C5.42632 14.0352 5.96958 14.6377 6.38813 15.513C6.44988 15.6423 6.44988 15.7896 6.39104 15.9184C6.65019 16.5672 6.79867 17.2769 6.79867 17.8739C6.79867 18.8188 6.75744 19.4107 5.96547 19.5677C5.88969 19.6419 5.78859 19.6837 5.68254 19.6837H5.07394C4.84934 19.6837 4.66631 19.5008 4.66631 19.2759V19.2666C4.67145 19.0465 4.85276 18.8681 5.07394 18.8681H5.68254C5.74139 18.8681 5.79954 18.8811 5.85291 18.9061C5.99711 18.8756 6.02106 18.8344 6.0344 18.8115C6.11069 18.6803 6.12591 18.3556 6.12591 17.8739C6.12591 17.3536 5.99318 16.7304 5.76157 16.1561C5.65756 16.11 5.57272 16.0287 5.52397 15.9264C5.12506 15.0915 4.58471 14.5729 4.11497 14.5729C3.63498 14.5729 3.06829 15.1324 2.67124 15.9988C2.61701 16.117 2.51643 16.2076 2.39481 16.2506C2.1827 16.806 2.06621 17.3799 2.06621 17.8735C2.06621 18.2512 2.07374 18.666 2.16525 18.8129C2.17928 18.8355 2.20751 18.8803 2.37018 18.9106C2.42663 18.8824 2.48889 18.8675 2.55304 18.8675H3.16217C3.37872 18.8675 3.55628 19.0374 3.56877 19.251L3.56979 19.2534L3.56928 19.2758C3.56928 19.5008 3.38642 19.6836 3.16165 19.6836H2.55253C2.45246 19.6836 2.35616 19.6458 2.28158 19.5784C2.06262 19.5423 1.77199 19.4561 1.59323 19.1691C1.42372 18.8964 1.39259 18.5191 1.39259 17.8739C1.39259 17.2846 1.53183 16.6068 1.7855 15.9596C1.74291 15.8419 1.7477 15.7136 1.80004 15.6003C2.05099 15.0516 2.36844 14.5839 2.71776 14.2476C2.92132 14.0507 3.14027 13.8969 3.36862 13.7893C3.44286 13.5808 3.59133 13.4128 3.77915 13.3222C3.82209 13.0181 3.94097 12.7016 4.12024 12.4004C1.70664 13.3607 0 15.7168 0 18.4719C0 22.0803 2.92489 22.0713 6.53266 22.0713H13.2611C16.8692 22.0713 19.7941 22.0803 19.7941 18.4719L19.7944 18.4721ZM15.5375 19.3433C15.5375 19.4281 15.4607 19.4966 15.3661 19.4966H14.434V20.4285C14.434 20.5234 14.3651 20.6002 14.2807 20.6002H13.3611C13.2763 20.6002 13.2079 20.5234 13.2079 20.4285V19.4966H12.2758C12.1814 19.4966 12.1042 19.4281 12.1042 19.3433V18.4237C12.1042 18.3388 12.1812 18.2704 12.2756 18.2704H13.2079V17.3385C13.2079 17.2436 13.2763 17.1668 13.3611 17.1668H14.2807C14.3651 17.1668 14.434 17.2436 14.434 17.3385V18.2704H15.3661C15.461 18.2704 15.5375 18.3388 15.5375 18.4237L15.5375 19.3433Z" fill="#ACB2BE"/>
<path d="M16.4596 14.849C16.4596 15.2553 16.1303 15.5847 15.7238 15.5847C15.3176 15.5847 14.9883 15.2553 14.9883 14.849C14.9883 14.4427 15.3176 14.1133 15.7238 14.1133C16.1303 14.1133 16.4596 14.4427 16.4596 14.849Z" fill="#ACB2BE"/>
<path d="M9.8991 0C7.39604 0 5.32257 1.93637 4.95735 4.464C4.91955 4.72468 4.90039 4.99119 4.90039 5.26247C4.90039 5.3728 4.90484 5.48193 4.91048 5.59056C4.92006 5.74947 4.93494 5.90615 4.95735 6.06095C4.96077 6.10799 4.96488 6.15486 4.96933 6.20173C5.28458 9.76859 7.37114 12.5246 9.89925 12.5246C12.4268 12.5246 14.5139 9.76855 14.8292 6.20173C14.8336 6.15486 14.8372 6.10799 14.8412 6.06095C14.8637 5.90615 14.8784 5.74946 14.8875 5.59056C14.8937 5.48193 14.8981 5.3728 14.8981 5.26247C14.8981 4.99152 14.8784 4.72468 14.8412 4.464C14.4756 1.93646 12.4022 0 9.89896 0H9.8991Z" fill="#ACB2BE"/>
</svg>

